<?xml version="1.0" standalone="no"?><!DOCTYPE svg PUBLIC "-//W3C//DTD SVG 1.1//EN" "http://www.w3.org/Graphics/SVG/1.1/DTD/svg11.dtd"><svg t="1696263162852" class="icon" viewBox="0 0 1248 1024" version="1.1" xmlns="http://www.w3.org/2000/svg" p-id="20815" xmlns:xlink="http://www.w3.org/1999/xlink" width="243.75" height="200"><path d="M1245.447314 11.342019A21.455238 21.455238 0 0 0 1226.849524 0.555886h-212.016762c-11.849143 0-21.455238 9.6256-21.455238 21.494247s9.606095 21.494248 21.455238 21.494248h174.684648l-117.877029 202.644724H439.159467L557.036495 43.544381h380.976762c11.849143 0 21.455238-9.615848 21.455238-21.494248a21.474743 21.474743 0 0 0-21.455238-21.494247H544.709486a21.455238 21.455238 0 0 0-18.529524 10.669104L389.500343 246.179352H114.639238L56.632076 112.835048h359.024153c11.849143 0 21.455238-9.615848 21.455238-21.494248a21.474743 21.474743 0 0 0-21.455238-21.494248H23.883581a21.455238 21.455238 0 0 0-17.944381 9.723124 21.533257 21.533257 0 0 0-1.726171 20.362972l74.91779 172.227047v729.790172c0 11.868648 9.596343 21.494248 21.455238 21.494247h983.381333c11.849143 0 21.455238-9.6256 21.455239-21.494247V273.476267L1245.379048 32.875276c3.861943-6.651124 3.8912-14.862629 0.058514-21.533257z m-182.925409 969.1136H423.28259v-70.8608a21.474743 21.474743 0 0 0-21.455238-21.504c-11.849143 0-21.455238 9.6256-21.455238 21.504v70.8608h-258.340571V289.158095h258.340571v528.052419c0 11.8784 9.606095 21.494248 21.455238 21.494248 11.849143 0 21.455238-9.615848 21.455238-21.494248V289.167848h639.239315v691.287771z" fill="#E91E63" p-id="20816"></path><path d="M332.575695 507.348114V387.754667a21.474743 21.474743 0 0 0-21.455238-21.494248H191.2832c-11.83939 0-21.455238 9.6256-21.455238 21.494248v119.6032c0 36.707962 25.648762 67.496229 59.928381 75.385904v60.601296h-33.860267c-11.849143 0-21.455238 9.6256-21.455238 21.494247s9.606095 21.494248 21.455238 21.494248H306.517333c11.849143 0 21.455238-9.6256 21.455238-21.494248a21.474743 21.474743 0 0 0-21.455238-21.494247h-33.860266v-60.591543c34.279619-7.899429 59.918629-38.697448 59.918628-75.385905z m-77.219352 34.386896h-8.299276a34.396648 34.396648 0 0 1-34.328381-34.386896v-98.108952h76.946285v98.108952a34.386895 34.386895 0 0 1-34.328381 34.386896zM904.981943 643.335314h-42.247314c-11.849143 0-21.455238 9.6256-21.455239 21.494248s9.606095 21.494248 21.455239 21.494248h42.247314c11.849143 0 21.455238-9.6256 21.455238-21.494248a21.474743 21.474743 0 0 0-21.455238-21.494248zM785.915124 643.335314H628.433676c-11.849143 0-21.455238 9.6256-21.455238 21.494248s9.606095 21.494248 21.455238 21.494248h157.481448c11.849143 0 21.455238-9.6256 21.455238-21.494248a21.474743 21.474743 0 0 0-21.455238-21.494248zM748.114895 466.768457l-64.521752-91.438324a21.435733 21.435733 0 0 0-35.030553 0l-64.531504 91.438324a21.513752 21.513752 0 0 0 5.129752 29.959314 21.425981 21.425981 0 0 0 29.9008-5.139504l25.560991-36.220343v128.487619c0 11.868648 9.606095 21.494248 21.455238 21.494247 11.849143 0 21.455238-9.6256 21.455238-21.494247V455.367924l25.551238 36.220343a21.406476 21.406476 0 0 0 29.9008 5.139504 21.513752 21.513752 0 0 0 5.129752-29.959314zM949.384533 466.758705l-64.531504-91.428572a21.435733 21.435733 0 0 0-35.030553 0l-64.531505 91.438324a21.533257 21.533257 0 0 0 5.139505 29.959314 21.425981 21.425981 0 0 0 29.9008-5.139504l25.551238-36.220343v128.487619c0 11.868648 9.606095 21.494248 21.455238 21.494247 11.858895 0 21.455238-9.6256 21.455238-21.494247V455.367924l25.560991 36.220343a21.416229 21.416229 0 0 0 29.9008 5.129752 21.513752 21.513752 0 0 0 5.129752-29.959314z" fill="#E91E63" p-id="20817"></path></svg>