<?xml version="1.0" standalone="no"?><!DOCTYPE svg PUBLIC "-//W3C//DTD SVG 1.1//EN" "http://www.w3.org/Graphics/SVG/1.1/DTD/svg11.dtd"><svg t="1696263295664" class="icon" viewBox="0 0 1024 1024" version="1.1" xmlns="http://www.w3.org/2000/svg" p-id="22750" xmlns:xlink="http://www.w3.org/1999/xlink" width="200" height="200"><path d="M556.512 71.28l347.392 181.776a96 96 0 0 1 51.504 85.056v347.776a96 96 0 0 1-51.504 85.056l-347.392 181.76a96 96 0 0 1-89.024 0L120.096 770.96a96 96 0 0 1-51.504-85.056V338.112a96 96 0 0 1 51.504-85.056l347.392-181.76a96 96 0 0 1 89.024 0zM132.688 335.584l-0.096 2.528v347.776a32 32 0 0 0 14.96 27.088l2.208 1.264L496 895.392V505.888L135.2 325.488a31.952 31.952 0 0 0-2.512 10.08z m757.248-7.04l-97.952 48L792 608a16 16 0 0 1-20.528 15.36l-1.76-0.64-44.96-19.28-64.368 78.688c-9.12 11.152-26.832 5.44-28.288-8.288L632 672V455.008L528 505.984v389.408L874.24 714.24a32 32 0 0 0 17.072-25.824l0.096-2.528V338.112c0-3.296-0.512-6.512-1.472-9.552z m-508.576-139.968l-85.76 44.864L655.04 409.632a16 16 0 0 1 8.464 10.4l0.368 1.952 0.128 2.016v203.168l43.616-53.296a16 16 0 0 1 16.88-5.232l1.808 0.64 33.696 14.448V377.888L381.36 188.576z m-120.928 63.264l-98.192 51.36 349.824 174.944 105.024-51.472-356.64-174.832z m239.312-125.056L497.168 128l-80.832 42.272 358.304 179.152 90.56-44.384L526.832 128a32 32 0 0 0-27.088-1.216z" fill="#E91E63" p-id="22751"></path></svg>