<?xml version="1.0" standalone="no"?><!DOCTYPE svg PUBLIC "-//W3C//DTD SVG 1.1//EN" "http://www.w3.org/Graphics/SVG/1.1/DTD/svg11.dtd"><svg t="1696263667666" class="icon" viewBox="0 0 1024 1024" version="1.1" xmlns="http://www.w3.org/2000/svg" p-id="23999" xmlns:xlink="http://www.w3.org/1999/xlink" width="200" height="200"><path d="M239.157533 100.980836c85.459481 0 154.738772 69.27929 154.738772 154.738772 0 85.457761-69.27757 154.737051-154.738772 154.737051-85.459481 0-154.738772-69.27929-154.738772-154.737051C84.418761 170.260126 153.698051 100.980836 239.157533 100.980836L239.157533 100.980836 239.157533 100.980836zM316.305013 241.061793l0-59.262572-99.341486 88.576482-54.953474-49.168445 0 59.262572 54.953474 49.170165L316.305013 241.061793 316.305013 241.061793zM932.297917 622.770488c-5.654294 0.307916-12.247816 0.469614-19.789168 0.469614L739.171187 623.240102c-4.396828 0-8.793657-2.200134-13.190485-6.595243-4.396828-4.401989-6.595243-8.165784-6.595243-11.308588l0-0.940949c-0.622712-30.776078-0.946109-58.72071-0.946109-83.849375l0-85.724392c0-6.908319 2.834888-13.350464 8.484021-19.312673 5.650853-5.96737 12.557452-8.943314 20.724956-8.943314 0.627873 0 5.337777-0.318237 14.134874-0.94783 8.791937-0.629593 19.622309-0.159978 32.503158 1.410563 12.875689 1.567101 26.534068 5.026421 40.978578 10.362478 14.44107 5.337777 27.944631 13.974896 40.508964 25.909636 19.469211 20.100524 33.285849 44.436178 41.449913 73.010402 8.165784 28.574224 15.707136 58.249375 22.608574 89.023733 0 1.257465 0.163419 2.200134 0.473055 2.829727 0.313076 0.624432 0.466174 1.570542 0.466174 2.826287C940.773337 618.533638 937.952211 622.459132 932.297917 622.770488L932.297917 622.770488 932.297917 622.770488zM1006.249268 634.073915c-4.711625-35.484263-13.033947-71.758097-24.965247-108.811181-11.939901-37.054804-29.833409-71.918076-53.702889-104.56401-13.185325-18.216906-29.513452-33.917162-48.989544-47.104206-19.464051-13.197366-40.195888-23.8712-62.173149-32.038704-21.984142-8.165784-44.27964-13.969735-66.891654-17.423895-22.608574-3.454159-44.27964-4.23685-65.004596-2.354952-6.903158 0.624432-12.71571 5.497756-17.427335 14.601048-4.709905 9.103293-7.063137 17.114259-7.063137 24.019137l0 454.087784c0 11.308588 4.080312 21.041473 12.246096 29.203817 8.167504 8.162344 17.891789 12.244376 29.202096 12.244376l16.959441 0c0-15.698535 2.982825-30.61954 8.950195-44.749254 5.97081-14.133154 14.131434-26.527187 24.495632-37.207902 10.365919-10.678995 22.450316-19.163016 36.270394-25.440022 13.814917-6.280446 28.88558-9.42325 45.213708-9.42325 16.333289 0 31.873565 2.200134 46.636312 6.596963 14.761027 4.396828 27.640156 11.303427 38.620185 20.723236 10.995511 9.42325 19.789168 21.667625 26.384411 36.741728 6.590082 15.075823 9.885983 33.292729 9.885983 54.642118l38.630507 0c3.765515 0 6.753501-1.885338 8.953635-5.649133 2.189813-3.772396 4.080312-8.325763 5.643973-13.6687 1.577422-5.336057 2.67835-10.677275 3.299341-16.011611 0.629593-5.341218 0.942669-9.896304 0.942669-13.66182 0-19.469211 0.158258-44.596156 0.469614-75.370515 0.319957-30.764037-1.883618-63.893348-6.595243-99.379331l0 0L1006.249268 634.075635zM838.086064 798.464722c16.326408 0 30.461282 5.96565 42.394302 17.90211 11.93474 11.93474 17.90039 26.057573 17.90039 42.394302 0 16.95256-5.96737 31.39879-17.90039 43.32665-11.93302 11.93818-26.062734 17.90383-42.394302 17.90383-16.95256 0-31.245693-5.96565-42.865636-17.90383-11.618223-11.93302-17.427335-26.372369-17.427335-43.32665 0-16.335009 5.809112-30.459562 17.427335-42.394302C806.840371 804.430372 821.126623 798.464722 838.086064 798.464722L838.086064 798.464722 838.086064 798.464722zM189.935761 797.527214c-16.957721 0-31.250853 5.96565-42.865636 17.893509-11.621664 11.93474-17.427335 26.37581-17.427335 43.342131 0 16.317807 5.805671 30.452681 17.427335 42.390861 11.616503 11.93474 25.907916 17.90039 42.865636 17.90039s31.245693-5.96737 42.865636-17.90039c11.621664-11.93646 17.423895-26.066174 17.423895-42.390861 0-16.957721-5.807391-31.409112-17.423895-43.342131C221.181454 803.492864 206.893482 797.527214 189.935761 797.527214L189.935761 797.527214 189.935761 797.527214zM430.61911 206.838436c4.677221 16.641204 7.037334 33.955006 7.037334 51.936245 0 27.426851-5.217363 53.075017-15.65725 76.927295-10.434727 23.852278-24.597124 44.721731-42.482032 62.610079-17.890069 17.884908-38.752641 31.904529-62.610079 42.038221-23.855718 10.133692-49.192528 15.201398-76.029351 15.201398-27.430292 0-53.069856-5.067706-76.922134-15.201398-23.852278-10.135412-44.720011-24.153313-62.610079-42.038221-17.890069-17.888348-32.049026-38.757801-42.482032-62.610079-10.438167-23.852278-15.65725-49.495283-15.65725-76.927295 0-2.996586 0.077409-5.97081 0.201263-8.931273-8.977718 11.016154-16.044295 23.055826-21.165327 36.131058C16.586158 300.415536 13.761591 315.178282 13.761591 330.252385l0 489.881683c0 11.93474 3.454159 21.041473 10.362478 27.320199 6.913479 6.273565 15.703696 9.421529 26.37925 9.421529l21.671066 0c0-40.194167 10.20938-70.185835 30.61782-89.966402 20.404999-19.785728 49.772235-29.682032 88.081064-29.682032 40.199328 0 69.721382 10.677275 88.557559 32.036984 18.841339 21.352829 28.266308 50.558366 28.266308 87.61145L564.878914 856.875796c10.056283 0 18.68136-3.454159 25.907916-10.365919 7.221395-6.904878 10.835533-15.695095 10.835533-26.37409l-1.885338-613.297353L430.61911 206.838436 430.61911 206.838436zM430.61911 206.838436" p-id="24000" fill="#E91E63"></path></svg>