<?xml version="1.0" standalone="no"?><!DOCTYPE svg PUBLIC "-//W3C//DTD SVG 1.1//EN" "http://www.w3.org/Graphics/SVG/1.1/DTD/svg11.dtd"><svg t="1674457229628" class="icon" viewBox="0 0 1024 1024" version="1.1" xmlns="http://www.w3.org/2000/svg" p-id="3406" xmlns:xlink="http://www.w3.org/1999/xlink" width="64" height="64"><path d="M585.152 512q0-60.576-42.848-103.424t-103.424-42.848-103.424 42.848T292.608 512t42.848 103.424 103.424 42.848 103.424-42.848T585.152 512z m78.848 0q0 93.728-65.728 159.424t-159.424 65.728-159.424-65.728T213.696 512t65.728-159.424 159.424-65.728 159.424 65.728T664 512z m61.728-234.272q0 21.728-15.424 37.152t-37.152 15.424-37.152-15.424-15.424-37.152 15.424-37.152 37.152-15.424 37.152 15.424 15.424 37.152zM438.848 152l-43.712-0.288q-39.712-0.288-60.288 0t-55.136 1.728-58.848 5.728-40.864 10.56q-28.576 11.424-50.272 33.152T96.576 253.152q-6.272 16.576-10.56 40.864t-5.728 58.848-1.728 55.136 0 60.288T78.848 512t-0.288 43.712 0 60.288 1.728 55.136 5.728 58.848 10.56 40.864q11.424 28.576 33.152 50.272t50.272 33.152q16.576 6.272 40.864 10.56t58.848 5.728 55.136 1.728 60.288 0 43.712-0.288 43.712 0.288 60.288 0 55.136-1.728 58.848-5.728 40.864-10.56q28.576-11.424 50.272-33.152t33.152-50.272q6.272-16.576 10.56-40.864t5.728-58.848 1.728-55.136 0-60.288T798.848 512t0.288-43.712 0-60.288-1.728-55.136-5.728-58.848-10.56-40.864q-11.424-28.576-33.152-50.272t-50.272-33.152q-16.576-6.272-40.864-10.56t-58.848-5.728-55.136-1.728-60.288 0-43.712 0.288zM877.728 512q0 130.848-2.848 181.152-5.728 118.848-70.848 184t-184 70.848q-50.272 2.848-181.152 2.848t-181.152-2.848q-118.848-5.728-184-70.848T2.88 693.152Q0.032 642.88 0.032 512t2.848-181.152q5.728-118.848 70.848-184t184-70.848q50.272-2.848 181.152-2.848t181.152 2.848q118.848 5.728 184 70.848t70.848 184q2.848 50.272 2.848 181.152z" fill="#ffffff" p-id="3407"></path></svg>