<?xml version="1.0" standalone="no"?><!DOCTYPE svg PUBLIC "-//W3C//DTD SVG 1.1//EN" "http://www.w3.org/Graphics/SVG/1.1/DTD/svg11.dtd"><svg t="1675320717579" class="icon" viewBox="0 0 1024 1024" version="1.1" xmlns="http://www.w3.org/2000/svg" p-id="5504" xmlns:xlink="http://www.w3.org/1999/xlink" width="32" height="32"><path d="M486.314667 0.085333C404.181333 1.194667 227.456 14.677333 128.597333 105.258667 55.210667 178.218667 29.568 285.781333 26.581333 418.986667c-2.56 132.693333-5.546667 381.866667 234.666667 449.749333v103.253333s-1.621333 41.386667 25.685333 49.92c33.706667 10.666667 52.906667-21.290667 84.906667-55.424l59.733333-67.413333c164.266667 13.653333 290.133333-17.877333 304.64-22.570667 33.28-10.666667 221.056-34.602667 251.776-283.818666 31.573333-257.322667-15.36-419.456-99.84-492.842667l-0.426666-0.085333c-25.6-23.466667-128-98.133333-357.12-98.986667 0 0-16.896-1.066667-44.288-0.682667z m2.858666 72.405334c23.253333-0.128 37.546667 0.853333 37.546667 0.853333 193.706667 0.426667 286.336 58.88 308.096 78.506667 71.253333 60.970667 107.861333 207.189333 81.066667 422.058666-25.6 208.213333-177.92 221.44-206.08 230.4-11.946667 3.84-122.88 31.146667-262.485334 22.186667 0 0-104.064 125.482667-136.490666 157.909333-5.12 5.546667-11.093333 7.253333-14.933334 6.4-5.546667-1.28-7.253333-8.106667-6.826666-17.493333l0.853333-171.477333c-203.562667-56.32-191.616-268.885333-189.482667-379.818667 2.56-110.933333 23.466667-201.898667 85.333334-263.338667 83.498667-75.52 233.6-85.76 303.36-86.186666z m15.36 110.933333a12.757333 12.757333 0 0 0-12.8 12.757333 12.8 12.8 0 0 0 12.8 12.8 240.256 240.256 0 0 1 171.946667 67.84c46.506667 45.226667 69.162667 105.813333 70.016 185.173334a12.8 12.8 0 0 0 12.8 12.8v-0.384a12.8 12.8 0 0 0 12.8-12.8 275.242667 275.242667 0 0 0-77.226667-203.093334c-50.773333-49.493333-114.858667-75.093333-190.378666-75.093333z m-168.704 29.44a40.746667 40.746667 0 0 0-26.24 5.12h-0.512c-17.493333 10.24-33.621333 23.04-48.981333 40.106667-11.52 13.653333-17.962667 27.264-19.669333 40.490666a52.906667 52.906667 0 0 0 2.133333 23.082667l0.853333 0.426667a585.472 585.472 0 0 0 51.2 110.933333 656.341333 656.341333 0 0 0 98.986667 135.296l1.28 1.706667 1.706667 1.28 1.28 1.28 1.28 1.28a665.728 665.728 0 0 0 135.68 99.413333c56.32 30.72 90.538667 45.226667 111.018666 51.2v0.426667c5.973333 1.706667 11.434667 2.56 16.981334 2.56a78.506667 78.506667 0 0 0 47.018666-20.138667c16.64-14.933333 29.866667-31.488 39.68-48.981333v-0.426667c9.813333-18.346667 6.4-35.882667-7.68-47.829333a581.632 581.632 0 0 0-91.733333-65.706667c-21.76-11.946667-43.946667-4.693333-52.906667 7.253333l-19.2 24.277334c-9.813333 11.946667-27.733333 10.24-27.733333 10.24l-0.512 0.426666c-133.12-34.133333-168.533333-168.917333-168.533333-168.917333s-1.706667-18.346667 10.666666-27.733333l23.893334-19.2c11.52-9.386667 19.626667-31.573333 7.253333-53.333334a576.938667 576.938667 0 0 0-65.706667-91.733333 35.968 35.968 0 0 0-21.504-12.8z m190.848 37.973333a12.8 12.8 0 0 0 0.085334 25.6 161.28 161.28 0 0 1 113.066666 49.066667 149.333333 149.333333 0 0 1 38.4 109.653333 12.8 12.8 0 0 0 12.8 12.757334l0.426667 0.512a12.8 12.8 0 0 0 12.8-12.842667c1.28-50.773333-14.506667-93.44-45.653333-127.573333-31.146667-34.133333-74.666667-53.333333-130.133334-57.173334a12.8 12.8 0 0 0-1.792 0z m20.906667 69.077334a13.013333 13.013333 0 0 0-0.768 26.069333c42.24 2.133333 62.72 23.466667 65.28 67.413333a12.8 12.8 0 0 0 12.8 12.373334h0.426667a12.8 12.8 0 0 0 12.373333-13.653334c-2.986667-57.173333-34.133333-89.216-89.6-92.202666a13.013333 13.013333 0 0 0-0.512 0z" p-id="5505" fill="#ffffff"></path></svg>